<svg width="289" height="61" viewBox="0 0 289 61" fill="none" xmlns="http://www.w3.org/2000/svg">
<path d="M101.839 59.7699C94.5147 59.7699 90.053 56.3184 90.053 47.9842V0H94.1268C98.8509 0 102.68 3.82962 102.68 8.55369V44.2989C102.68 46.9928 103.943 48.003 106.3 48.003H112.469C117.193 48.003 121.023 51.8326 121.023 56.5567V59.7699H101.839Z" fill="white"></path>
<path d="M137.992 59.7697C128.647 59.7697 123.377 54.5503 123.377 43.6907V14.6476H127.45C132.174 14.6476 136.004 18.4772 136.004 23.2013V40.7443C136.004 47.7315 138.109 50.7621 142.654 50.7621C147.79 50.7621 150.82 47.3106 150.82 40.155V14.6476H154.894C159.618 14.6476 163.448 18.4772 163.448 23.2013V59.7696H155.422C153.485 59.7696 151.915 58.1992 151.915 56.262C149.976 59.185 144.558 59.7697 137.992 59.7697Z" fill="white"></path>
<path d="M166.638 59.7696L181.855 38.0995C182.372 37.3627 182.373 36.3807 181.856 35.6434L167.143 14.6476H177.313C179.321 14.6476 181.195 15.6538 182.304 17.3273L188.327 26.4139C189.177 27.6961 191.062 27.6885 191.901 26.3994L197.782 17.3679C198.887 15.671 200.775 14.6476 202.8 14.6476H213.191L198.476 35.7261C197.96 36.4643 197.963 37.4462 198.481 38.1821L213.696 59.7696H203.496C201.458 59.7696 199.561 58.7337 198.459 57.0199L192.161 47.2228C191.323 45.9194 189.42 45.9121 188.572 47.2089L182.132 57.0587C181.026 58.7502 179.142 59.7696 177.121 59.7696H166.638Z" fill="white"></path>
<path d="M235.137 60.7801C221.331 60.7801 213.379 51.52 213.379 37.2089C213.379 22.982 221.331 13.6377 235.137 13.6377C248.943 13.6377 256.895 22.982 256.895 37.2089C256.895 51.52 248.943 60.7801 235.137 60.7801ZM235.137 51.0991C241.45 51.0991 244.986 45.9639 244.986 37.2089C244.986 28.4539 241.45 23.3187 235.137 23.3187C228.823 23.3187 225.203 28.4539 225.203 37.2089C225.203 45.9639 228.823 51.0991 235.137 51.0991Z" fill="white"></path>
<path d="M261.58 59.7696V14.6476H273.534L273.787 23.7393C275.639 17.3414 279.006 14.6476 284.562 14.6476H288.687V20.9613C288.687 23.2395 286.84 25.0863 284.562 25.0863C277.491 25.0863 274.208 27.6959 274.208 34.4306V51.2159C274.208 55.94 270.378 59.7696 265.654 59.7696H261.58Z" fill="white"></path>
<path d="M27.5952 5.81234C31.1729 0.0748045 39.5319 0.0914812 43.0867 5.84325L68.5585 47.058C72.3123 53.1318 67.9436 60.968 60.8034 60.9682H42.6749C46.2198 56.9309 47.2702 50.7776 44.1776 45.4955L44.0548 45.2896L31.8545 25.244C29.0259 20.5966 24.0512 18.5392 19.3239 19.0768L27.5952 5.81234Z" fill="#FFC547"></path>
<path d="M8.94299 61H29.3596C36.3456 61 40.6255 53.2517 36.9629 47.2351L26.8 30.54C23.3212 24.8254 15.1132 24.8089 11.612 30.5095L1.35837 47.2045C-2.33625 53.2201 1.94106 61 8.94299 61Z" fill="#FFC547"></path>
</svg>