<svg width="1141" height="1201" viewBox="0 0 1141 1201" fill="none" xmlns="http://www.w3.org/2000/svg">
<path d="M865.548 378.159L554.019 173.921C523.043 153.614 524.979 107.483 557.546 89.8556L712.706 5.87621C728.47 -2.65602 747.628 -1.84782 762.621 7.98198L1118.46 241.271C1132.28 250.331 1140.6 265.782 1140.57 282.339L1139.8 708.64C1139.77 726.603 1129.93 743.105 1114.17 751.637L959.009 835.617C926.441 853.244 886.918 829.552 886.985 792.443L887.656 419.228C887.686 402.671 879.369 387.22 865.548 378.159Z" fill="#047BFF"/>
<path d="M457.602 656.242L456.711 1151.48C456.644 1188.59 496.167 1212.28 528.734 1194.66L747.923 1076.02C763.687 1067.49 773.526 1050.99 773.558 1033.02L774.544 484.698C774.574 468.141 766.257 452.691 752.436 443.63L294.74 143.565C279.746 133.735 260.589 132.927 244.825 141.459L25.6363 260.094C-6.931 277.721 -8.86671 323.852 22.1089 344.159L435.494 615.174C449.314 624.234 457.631 639.685 457.602 656.242Z" fill="#047BFF"/>
<path d="M174.79 774.953C174.764 789.44 182.113 802.96 194.321 810.888L346.445 909.666C352.94 913.883 356.848 921.074 356.834 928.781L356.552 1082.52C356.519 1100.61 336.296 1111.45 321.051 1101.55L20.0348 906.084C7.82592 898.156 0.47728 884.636 0.503581 870.149L1.15138 492.898C1.18434 474.809 21.4072 463.967 36.6521 473.867L164.724 557.03C171.218 561.247 175.126 568.438 175.112 576.144L174.79 774.953Z" fill="#047BFF"/>
</svg>
