<svg width="449" height="100" viewBox="0 0 449 100" fill="none" xmlns="http://www.w3.org/2000/svg">
<path d="M72.022 31.4978L46.0997 14.4868C43.5223 12.7953 43.6833 8.95308 46.3933 7.48493L59.304 0.490259C60.6158 -0.220393 62.2099 -0.153078 63.4575 0.665649L93.0669 20.0963C94.2169 20.851 94.909 22.1379 94.9065 23.5169L94.8427 59.0237C94.84 60.5198 94.0213 61.8943 92.7096 62.6049L79.7988 69.5996C77.0889 71.0678 73.8002 69.0945 73.8057 66.0036L73.8616 34.9184C73.8641 33.5394 73.172 32.2525 72.022 31.4978Z" fill="#047BFF"></path>
<path d="M38.0769 54.6594L38.0028 95.908C37.9972 98.9989 41.2859 100.972 43.9958 99.504L62.2344 89.6229C63.5461 88.9122 64.3649 87.5377 64.3675 86.0416L64.4496 40.3715C64.4521 38.9924 63.76 37.7056 62.61 36.9509L24.5252 11.9584C23.2776 11.1397 21.6835 11.0724 20.3718 11.783L2.13319 21.6641C-0.576726 23.1323 -0.737796 26.9745 1.83967 28.666L36.2373 51.2388C37.3873 51.9935 38.0794 53.2804 38.0769 54.6594Z" fill="#047BFF"></path>
<path d="M14.5442 64.547C14.542 65.7536 15.1536 66.8797 16.1694 67.54L28.8276 75.7672C29.368 76.1185 29.6932 76.7174 29.692 77.3593L29.6686 90.1644C29.6658 91.6711 27.9831 92.5741 26.7146 91.7496L1.66708 75.4689C0.651184 74.8086 0.0397052 73.6825 0.0418937 72.4759L0.0957968 41.0546C0.0985393 39.5479 1.78128 38.6449 3.0498 39.4694L13.7066 46.3961C14.247 46.7473 14.5722 47.3463 14.571 47.9881L14.5442 64.547Z" fill="#047BFF"></path>
<path d="M164.295 74.7597C164.295 82.0921 167.395 84.2074 173.595 84.2074H184.163V100H165.845C150.203 100 143.233 93.0762 143.233 77.2834V62.369C143.233 50.2812 153.26 40.3242 164.295 40.2253V74.7597ZM227.646 24.4194C250.051 24.4194 264.565 38.2385 264.565 63.6198V67.8507H211.582C212.005 79.8359 218.346 85.6169 228.209 85.6171C235.255 85.6171 240.188 82.6562 242.301 76.4518H264.565C261.565 92.1977 245.965 100 227.787 100C204.677 99.9999 189.74 86.0404 189.74 62.2101C189.74 38.3799 204.677 24.4196 227.646 24.4194ZM290.019 37.0599C294.247 26.9073 302.977 24.4194 312.982 24.4194C329.187 24.4194 338.629 33.8671 338.629 51.3519V100H317.491V58.403C317.491 46.2763 314.814 39.5076 305.936 39.5076C297.2 39.5076 292.268 46.2763 292.268 58.403V100H271.13V41.6968C272.025 32.1165 280.418 24.761 289.37 24.4194H290.154L290.019 37.0599ZM366.456 55.4415L394.498 24.4194H419.862L390.552 55.5827L420.707 100H397.597L376.883 67.5682L366.456 78.7081V100H345.318V18.838C346.796 8.20316 356.367 0.183294 366.456 0.00441357V55.4415ZM449 99.9859L427.325 100V45.7828C427.503 34.0402 438.094 24.7924 448.838 24.4053H449V99.9859ZM227.646 38.3795C218.768 38.3797 212.709 44.4431 211.582 54.8774H243.006C242.443 43.8788 236.382 38.3795 227.646 38.3795ZM164.295 18.996H184.163V40.2129H164.295V40.2235H143.233V40.2129H131.038V18.996H143.157V0.325721H164.295V18.996ZM449 18.078C440.275 18.078 427.506 9.21233 427.325 0.193314V0H449V18.078Z" fill="white"></path>
</svg>